<?xml version="1.0" encoding="utf-8"?>
<!-- Generator: Adobe Illustrator 19.2.1, SVG Export Plug-In . SVG Version: 6.00 Build 0)  -->
<svg version="1.1" id="Layer_1" xmlns="http://www.w3.org/2000/svg" xmlns:xlink="http://www.w3.org/1999/xlink" x="0px" y="0px"
	 viewBox="0 0 800 600" style="enable-background:new 0 0 800 600;" xml:space="preserve">
<style type="text/css">
	.st0{fill:#8DC63F;}
	.st1{fill:#6D6E71;}
</style>
<g>
	<g>
		<path class="st0" d="M158.1,288.8h-7.9v32.1h-11.7v-32.1h-8.4l0.7-10.3h28L158.1,288.8z"/>
		<path class="st0" d="M161.7,286c-1-0.8-1.4-2.1-1.4-4c0-1.8,0.5-3.2,1.4-4c1-0.9,2.5-1.3,4.7-1.3c2.2,0,3.8,0.4,4.7,1.3
			c1,0.9,1.4,2.2,1.4,4c0,1.8-0.5,3.1-1.4,4c-1,0.8-2.5,1.3-4.7,1.3C164.2,287.2,162.6,286.8,161.7,286z M172.1,320.9h-11.3v-32.4
			h11.3V320.9z"/>
		<path class="st0" d="M202,288.8H194v32.1h-11.7v-32.1H174l0.7-10.3h28L202,288.8z"/>
		<path class="st0" d="M235.8,320.9h-11.4l-1.3-6.7H215l-1.3,6.7h-10.9l7.8-42.4H228L235.8,320.9z M221.8,306.2l-2.4-15.2h-0.5
			l-2.4,15.2H221.8z"/>
		<path class="st0" d="M270.2,320.9H259l-8.8-19.7h-0.5v19.7h-10.4v-42.4h11.5l8.4,20.3h0.5v-20.3h10.4V320.9z"/>
		<path class="st0" d="M277.9,281.5c2.4-2.5,5.6-3.7,9.7-3.7c4.1,0,8.3,0.4,12.7,1.2l-1.4,10.9c-4.5-1-7.6-1.6-9.3-1.6
			c-2.1,0-3.2,0.9-3.2,2.6c0,0.7,0.5,1.3,1.5,2c1,0.6,2.3,1.3,3.7,2c1.5,0.7,2.9,1.5,4.4,2.5c1.5,1,2.7,2.4,3.7,4.2
			c1,1.8,1.5,3.9,1.5,6.3c0,4.3-1.2,7.7-3.5,10c-2.3,2.4-5.6,3.5-9.9,3.5c-4.3,0-8.4-0.7-12.5-2l0.8-10.2c4.9,1.4,8.3,2.1,10.2,2.1
			c1.9,0,2.9-0.8,2.9-2.5c0-0.9-0.5-1.7-1.5-2.4c-1-0.7-2.3-1.5-3.7-2.2c-1.5-0.7-2.9-1.6-4.4-2.5c-1.5-1-2.7-2.3-3.8-4.2
			c-1-1.8-1.5-4-1.5-6.5C274.3,287.2,275.5,284,277.9,281.5z"/>
	</g>
	<path class="st0" d="M239.8,323.1c-10.6,48.6-53.8,85-105.6,85c-59.7,0-108.1-48.4-108.1-108.1s48.4-108.1,108.1-108.1
		c51.7,0,94.9,36.3,105.6,84.8h5.8c-10.8-51.6-56.5-90.4-111.4-90.4c-62.8,0-113.8,50.9-113.8,113.8s50.9,113.8,113.8,113.8
		c54.9,0,100.7-38.9,111.4-90.6H239.8z"/>
</g>
<g>
	<path class="st1" d="M253.5,362.2h-4.9v-1.8h12v1.8h-4.9v14.4h-2.1V362.2z"/>
	<path class="st1" d="M261.8,371.2c0,2.9,1.9,4,4,4c1.5,0,2.4-0.3,3.2-0.6l0.4,1.5c-0.7,0.3-2,0.7-3.9,0.7c-3.6,0-5.7-2.4-5.7-5.9
		c0-3.5,2.1-6.3,5.4-6.3c3.8,0,4.8,3.3,4.8,5.5c0,0.4,0,0.8-0.1,1H261.8z M268,369.7c0-1.3-0.6-3.4-2.9-3.4c-2.1,0-3.1,2-3.2,3.4
		H268z"/>
	<path class="st1" d="M273.8,371.2c0,2.9,1.9,4,4,4c1.5,0,2.4-0.3,3.2-0.6l0.4,1.5c-0.7,0.3-2,0.7-3.9,0.7c-3.6,0-5.7-2.4-5.7-5.9
		c0-3.5,2.1-6.3,5.4-6.3c3.8,0,4.8,3.3,4.8,5.5c0,0.4,0,0.8-0.1,1H273.8z M280,369.7c0-1.3-0.6-3.4-2.9-3.4c-2.1,0-3.1,2-3.2,3.4
		H280z"/>
	<path class="st1" d="M284.7,368.2c0-1.2,0-2.2-0.1-3.1h1.9l0.1,1.9h0c0.6-1.1,1.9-2.2,3.8-2.2c1.6,0,4.1,1,4.1,4.9v6.9h-2.1v-6.7
		c0-1.9-0.7-3.4-2.7-3.4c-1.4,0-2.5,1-2.8,2.2c-0.1,0.3-0.1,0.6-0.1,1v7h-2.1V368.2z"/>
	<path class="st1" d="M297.7,374.5c0.6,0.4,1.7,0.8,2.8,0.8c1.5,0,2.3-0.8,2.3-1.7c0-1-0.6-1.6-2.2-2.1c-2.1-0.7-3.1-1.9-3.1-3.3
		c0-1.9,1.5-3.4,4-3.4c1.2,0,2.2,0.3,2.9,0.7l-0.5,1.5c-0.5-0.3-1.3-0.7-2.4-0.7c-1.2,0-1.9,0.7-1.9,1.6c0,1,0.7,1.4,2.2,2
		c2,0.8,3,1.8,3,3.5c0,2-1.6,3.5-4.3,3.5c-1.3,0-2.4-0.3-3.3-0.8L297.7,374.5z"/>
	<path class="st1" d="M314.9,361.7c0,0.7-0.5,1.3-1.3,1.3c-0.7,0-1.3-0.6-1.3-1.3c0-0.7,0.6-1.3,1.3-1.3
		C314.4,360.4,314.9,361,314.9,361.7z M312.6,376.6V365h2.1v11.6H312.6z"/>
	<path class="st1" d="M318.2,368.2c0-1.2,0-2.2-0.1-3.1h1.9l0.1,1.9h0c0.6-1.1,1.9-2.2,3.8-2.2c1.6,0,4.1,1,4.1,4.9v6.9H326v-6.7
		c0-1.9-0.7-3.4-2.7-3.4c-1.4,0-2.5,1-2.8,2.2c-0.1,0.3-0.1,0.6-0.1,1v7h-2.1V368.2z"/>
	<path class="st1" d="M338.8,362.2h-4.9v-1.8h12v1.8h-4.9v14.4h-2.1V362.2z"/>
	<path class="st1" d="M347,371.2c0,2.9,1.9,4,4,4c1.5,0,2.4-0.3,3.2-0.6l0.4,1.5c-0.7,0.3-2,0.7-3.9,0.7c-3.6,0-5.7-2.4-5.7-5.9
		c0-3.5,2.1-6.3,5.4-6.3c3.8,0,4.8,3.3,4.8,5.5c0,0.4,0,0.8-0.1,1H347z M353.2,369.7c0-1.3-0.6-3.4-2.9-3.4c-2.1,0-3.1,2-3.2,3.4
		H353.2z"/>
	<path class="st1" d="M366.1,376.2c-0.6,0.3-1.8,0.7-3.3,0.7c-3.5,0-5.8-2.4-5.8-5.9c0-3.6,2.4-6.2,6.2-6.2c1.2,0,2.4,0.3,2.9,0.6
		l-0.5,1.6c-0.5-0.3-1.3-0.6-2.4-0.6c-2.7,0-4.1,2-4.1,4.4c0,2.7,1.7,4.3,4,4.3c1.2,0,2-0.3,2.6-0.6L366.1,376.2z"/>
	<path class="st1" d="M368.6,359.6h2.1v7.2h0c0.3-0.6,0.9-1.1,1.5-1.5c0.6-0.4,1.4-0.6,2.2-0.6c1.6,0,4.1,1,4.1,5v6.9h-2.1V370
		c0-1.9-0.7-3.5-2.7-3.5c-1.4,0-2.4,1-2.8,2.1c-0.1,0.3-0.1,0.6-0.1,1v7h-2.1V359.6z"/>
	<path class="st1" d="M386.5,366.9c0-0.9,0.6-1.5,1.4-1.5c0.8,0,1.4,0.6,1.4,1.5c0,0.8-0.6,1.5-1.4,1.5
		C387.1,368.4,386.5,367.8,386.5,366.9z M386.5,375.4c0-0.9,0.6-1.5,1.4-1.5c0.8,0,1.4,0.6,1.4,1.5c0,0.8-0.6,1.5-1.4,1.5
		C387.1,376.9,386.5,376.2,386.5,375.4z"/>
	<path class="st1" d="M399.8,371.5l-1.7,5.1h-2.2l5.5-16.2h2.5l5.5,16.2h-2.2l-1.7-5.1H399.8z M405.1,369.9l-1.6-4.7
		c-0.4-1.1-0.6-2-0.8-3h0c-0.2,1-0.5,1.9-0.8,2.9l-1.6,4.7H405.1z"/>
	<path class="st1" d="M419.8,376.2c-0.6,0.3-1.8,0.7-3.3,0.7c-3.5,0-5.8-2.4-5.8-5.9c0-3.6,2.4-6.2,6.2-6.2c1.2,0,2.4,0.3,2.9,0.6
		l-0.5,1.6c-0.5-0.3-1.3-0.6-2.4-0.6c-2.7,0-4.1,2-4.1,4.4c0,2.7,1.7,4.3,4,4.3c1.2,0,2-0.3,2.6-0.6L419.8,376.2z"/>
	<path class="st1" d="M430,374.8L430,374.8c-0.7,1.2-2,2.1-3.8,2.1c-2.7,0-4.9-2.4-4.9-5.9c0-4.3,2.8-6.3,5.3-6.3c1.8,0,3,0.9,3.6,2
		h0l0.1-1.8h2c0,1-0.1,2-0.1,3.2v13.2H430V374.8z M430,369.7c0-0.3,0-0.6-0.1-0.9c-0.3-1.3-1.4-2.4-3-2.4c-2.2,0-3.5,1.8-3.5,4.5
		c0,2.3,1.1,4.3,3.4,4.3c1.4,0,2.5-0.8,3-2.3c0.1-0.3,0.2-0.7,0.2-1V369.7z"/>
	<path class="st1" d="M445.3,373.5c0,1.2,0,2.3,0.1,3.2h-1.9l-0.1-1.9h0c-0.6,0.9-1.8,2.2-3.8,2.2c-1.8,0-4-1-4-5.1V365h2.1v6.4
		c0,2.2,0.7,3.7,2.6,3.7c1.4,0,2.4-1,2.8-1.9c0.1-0.3,0.2-0.7,0.2-1.1V365h2.1V373.5z"/>
	<path class="st1" d="M451.2,361.7c0,0.7-0.5,1.3-1.3,1.3c-0.7,0-1.3-0.6-1.3-1.3c0-0.7,0.6-1.3,1.3-1.3
		C450.7,360.4,451.2,361,451.2,361.7z M448.8,376.6V365h2.1v11.6H448.8z"/>
	<path class="st1" d="M454.4,368.6c0-1.4,0-2.5-0.1-3.6h1.8l0.1,2.3h0.1c0.5-1.6,1.8-2.5,3.2-2.5c0.2,0,0.4,0,0.6,0.1v2
		c-0.2,0-0.4-0.1-0.7-0.1c-1.5,0-2.5,1.1-2.8,2.7c0,0.3-0.1,0.6-0.1,1v6.2h-2.1V368.6z"/>
	<path class="st1" d="M464.7,361.7c0,0.7-0.5,1.3-1.3,1.3c-0.7,0-1.3-0.6-1.3-1.3c0-0.7,0.6-1.3,1.3-1.3
		C464.2,360.4,464.7,361,464.7,361.7z M462.4,376.6V365h2.1v11.6H462.4z"/>
	<path class="st1" d="M468,368.2c0-1.2,0-2.2-0.1-3.1h1.9l0.1,1.9h0c0.6-1.1,1.9-2.2,3.8-2.2c1.6,0,4.1,1,4.1,4.9v6.9h-2.1v-6.7
		c0-1.9-0.7-3.4-2.7-3.4c-1.4,0-2.5,1-2.8,2.2c-0.1,0.3-0.1,0.6-0.1,1v7H468V368.2z"/>
	<path class="st1" d="M491.3,365c0,0.8-0.1,1.8-0.1,3.2v6.7c0,2.7-0.5,4.3-1.7,5.3c-1.1,1.1-2.8,1.4-4.2,1.4c-1.4,0-2.9-0.3-3.9-1
		l0.5-1.6c0.8,0.5,2,0.9,3.4,0.9c2.2,0,3.7-1.1,3.7-4.1v-1.3h0c-0.6,1.1-1.9,1.9-3.7,1.9c-2.9,0-4.9-2.4-4.9-5.7
		c0-3.9,2.6-6.2,5.2-6.2c2,0,3.1,1.1,3.6,2h0l0.1-1.8H491.3z M489.1,369.6c0-0.4,0-0.7-0.1-1c-0.4-1.2-1.4-2.2-3-2.2
		c-2,0-3.5,1.7-3.5,4.4c0,2.3,1.2,4.2,3.4,4.2c1.3,0,2.5-0.8,2.9-2.2c0.1-0.4,0.2-0.8,0.2-1.1V369.6z"/>
	<path class="st1" d="M499.9,376.6v-16.2h2.3l5.2,8.2c1.2,1.9,2.1,3.6,2.9,5.3l0,0c-0.2-2.2-0.2-4.1-0.2-6.6v-6.8h2v16.2h-2.1
		l-5.1-8.2c-1.1-1.8-2.2-3.6-3-5.4l-0.1,0c0.1,2,0.2,4,0.2,6.7v6.9H499.9z"/>
	<path class="st1" d="M516.8,371.2c0,2.9,1.9,4,4,4c1.5,0,2.4-0.3,3.2-0.6l0.4,1.5c-0.7,0.3-2,0.7-3.9,0.7c-3.6,0-5.7-2.4-5.7-5.9
		c0-3.5,2.1-6.3,5.4-6.3c3.8,0,4.8,3.3,4.8,5.5c0,0.4,0,0.8-0.1,1H516.8z M523,369.7c0-1.3-0.6-3.4-2.9-3.4c-2.1,0-3.1,2-3.2,3.4
		H523z"/>
	<path class="st1" d="M528.5,365l1.5,5.9c0.3,1.3,0.6,2.5,0.9,3.7h0.1c0.3-1.2,0.6-2.4,1-3.7l1.9-5.9h1.8l1.8,5.8
		c0.4,1.4,0.8,2.6,1,3.8h0.1c0.2-1.2,0.5-2.4,0.9-3.8l1.7-5.8h2.1l-3.7,11.6h-1.9l-1.8-5.5c-0.4-1.3-0.7-2.4-1-3.8h0
		c-0.3,1.4-0.6,2.6-1.1,3.8l-1.9,5.5h-1.9l-3.5-11.6H528.5z"/>
	<path class="st1" d="M550.2,374.1c0.9,0.6,2.3,1.1,3.7,1.1c2.1,0,3.4-1.1,3.4-2.8c0-1.5-0.9-2.4-3-3.2c-2.6-0.9-4.3-2.3-4.3-4.6
		c0-2.5,2.1-4.4,5.2-4.4c1.7,0,2.9,0.4,3.6,0.8l-0.6,1.7c-0.5-0.3-1.6-0.8-3.1-0.8c-2.2,0-3,1.3-3,2.4c0,1.5,1,2.3,3.2,3.1
		c2.7,1.1,4.1,2.4,4.1,4.8c0,2.5-1.8,4.7-5.7,4.7c-1.6,0-3.3-0.5-4.1-1L550.2,374.1z"/>
	<path class="st1" d="M564.3,370.3L564.3,370.3c0.3-0.4,0.7-0.9,1.1-1.3l3.4-4h2.5l-4.5,4.8l5.1,6.8h-2.6l-4-5.6l-1.1,1.2v4.4h-2.1
		v-17h2.1V370.3z"/>
	<path class="st1" d="M576.2,361.7c0,0.7-0.5,1.3-1.3,1.3c-0.7,0-1.3-0.6-1.3-1.3c0-0.7,0.6-1.3,1.3-1.3
		C575.7,360.4,576.2,361,576.2,361.7z M573.9,376.6V365h2.1v11.6H573.9z"/>
	<path class="st1" d="M579.5,359.6h2.1v17h-2.1V359.6z"/>
	<path class="st1" d="M585.2,359.6h2.1v17h-2.1V359.6z"/>
	<path class="st1" d="M590.5,374.5c0.6,0.4,1.7,0.8,2.8,0.8c1.5,0,2.3-0.8,2.3-1.7c0-1-0.6-1.6-2.2-2.1c-2.1-0.7-3.1-1.9-3.1-3.3
		c0-1.9,1.5-3.4,4-3.4c1.2,0,2.2,0.3,2.9,0.7l-0.5,1.5c-0.5-0.3-1.3-0.7-2.4-0.7c-1.2,0-1.9,0.7-1.9,1.6c0,1,0.7,1.4,2.2,2
		c2,0.8,3,1.8,3,3.5c0,2-1.6,3.5-4.3,3.5c-1.3,0-2.4-0.3-3.3-0.8L590.5,374.5z"/>
</g>
</svg>
