<?xml version="1.0" encoding="utf-8"?>
<!-- Generator: Adobe Illustrator 19.2.1, SVG Export Plug-In . SVG Version: 6.00 Build 0)  -->
<svg version="1.1" id="Layer_1" xmlns="http://www.w3.org/2000/svg" xmlns:xlink="http://www.w3.org/1999/xlink" x="0px" y="0px"
	 viewBox="0 0 800 250" style="enable-background:new 0 0 800 250;" xml:space="preserve">
<style type="text/css">
	.st0{fill:#8DC63F;}
	.st1{fill:#6D6E71;}
</style>
<g>
	<g>
		<path class="st0" d="M161.1,113.8h-7.9v32.1h-11.7v-32.1h-8.4l0.7-10.3h28L161.1,113.8z"/>
		<path class="st0" d="M164.7,111c-1-0.8-1.4-2.1-1.4-4c0-1.8,0.5-3.2,1.4-4c1-0.9,2.5-1.3,4.7-1.3c2.2,0,3.8,0.4,4.7,1.3
			c1,0.9,1.4,2.2,1.4,4c0,1.8-0.5,3.1-1.4,4c-1,0.8-2.5,1.3-4.7,1.3C167.2,112.2,165.6,111.8,164.7,111z M175.1,145.9h-11.3v-32.4
			h11.3V145.9z"/>
		<path class="st0" d="M205,113.8H197v32.1h-11.7v-32.1H177l0.7-10.3h28L205,113.8z"/>
		<path class="st0" d="M238.8,145.9h-11.4l-1.3-6.7H218l-1.3,6.7h-10.9l7.8-42.4H231L238.8,145.9z M224.8,131.2l-2.4-15.2h-0.5
			l-2.4,15.2H224.8z"/>
		<path class="st0" d="M273.2,145.9H262l-8.8-19.7h-0.5v19.7h-10.4v-42.4h11.5l8.4,20.3h0.5v-20.3h10.4V145.9z"/>
		<path class="st0" d="M280.9,106.5c2.4-2.5,5.6-3.7,9.7-3.7c4.1,0,8.3,0.4,12.7,1.2l-1.4,10.9c-4.5-1-7.6-1.6-9.3-1.6
			c-2.1,0-3.2,0.9-3.2,2.6c0,0.7,0.5,1.3,1.5,2c1,0.6,2.3,1.3,3.7,2c1.5,0.7,2.9,1.5,4.4,2.5c1.5,1,2.7,2.4,3.7,4.2
			c1,1.8,1.5,3.9,1.5,6.3c0,4.3-1.2,7.7-3.5,10c-2.3,2.4-5.6,3.5-9.9,3.5c-4.3,0-8.4-0.7-12.5-2l0.8-10.2c4.9,1.4,8.3,2.1,10.2,2.1
			c1.9,0,2.9-0.8,2.9-2.5c0-0.9-0.5-1.7-1.5-2.4c-1-0.7-2.3-1.5-3.7-2.2c-1.5-0.7-2.9-1.6-4.4-2.5c-1.5-1-2.7-2.3-3.8-4.2
			c-1-1.8-1.5-4-1.5-6.5C277.3,112.2,278.5,109,280.9,106.5z"/>
	</g>
	<path class="st0" d="M242.8,148.1c-10.6,48.6-53.8,85-105.6,85c-59.7,0-108.1-48.4-108.1-108.1S77.6,16.9,137.2,16.9
		c51.7,0,94.9,36.3,105.6,84.8h5.8C237.9,50,192.1,11.2,137.2,11.2C74.4,11.2,23.5,62.2,23.5,125s50.9,113.8,113.8,113.8
		c54.9,0,100.7-38.9,111.4-90.6H242.8z"/>
</g>
<g>
	<path class="st1" d="M259,180h-7.4v-2.7h18v2.7h-7.4v21.6H259V180z"/>
	<path class="st1" d="M271.4,193.5c0.1,4.3,2.8,6,6,6c2.3,0,3.6-0.4,4.8-0.9l0.5,2.3c-1.1,0.5-3,1.1-5.8,1.1c-5.4,0-8.6-3.5-8.6-8.8
		c0-5.3,3.1-9.4,8.2-9.4c5.7,0,7.2,5,7.2,8.2c0,0.6-0.1,1.2-0.1,1.5H271.4z M280.7,191.2c0-2-0.8-5.1-4.4-5.1c-3.2,0-4.6,3-4.9,5.1
		H280.7z"/>
	<path class="st1" d="M289.4,193.5c0.1,4.3,2.8,6,6,6c2.3,0,3.6-0.4,4.8-0.9l0.5,2.3c-1.1,0.5-3,1.1-5.8,1.1c-5.4,0-8.6-3.5-8.6-8.8
		c0-5.3,3.1-9.4,8.2-9.4c5.7,0,7.2,5,7.2,8.2c0,0.6-0.1,1.2-0.1,1.5H289.4z M298.7,191.2c0-2-0.8-5.1-4.4-5.1c-3.2,0-4.6,3-4.9,5.1
		H298.7z"/>
	<path class="st1" d="M305.7,188.9c0-1.8,0-3.3-0.1-4.7h2.8l0.2,2.9h0.1c0.9-1.7,2.9-3.3,5.8-3.3c2.4,0,6.2,1.4,6.2,7.4v10.4h-3.2
		v-10c0-2.8-1-5.1-4-5.1c-2.1,0-3.7,1.5-4.2,3.2c-0.1,0.4-0.2,0.9-0.2,1.5v10.5h-3.2V188.9z"/>
	<path class="st1" d="M325.2,198.4c0.9,0.6,2.6,1.3,4.2,1.3c2.3,0,3.4-1.2,3.4-2.6c0-1.5-0.9-2.3-3.2-3.2c-3.1-1.1-4.6-2.8-4.6-4.9
		c0-2.8,2.3-5.1,6-5.1c1.8,0,3.3,0.5,4.3,1.1l-0.8,2.3c-0.7-0.4-1.9-1-3.6-1c-1.9,0-2.9,1.1-2.9,2.4c0,1.4,1,2.1,3.3,3
		c3,1.2,4.6,2.7,4.6,5.3c0,3.1-2.4,5.2-6.5,5.2c-1.9,0-3.7-0.5-4.9-1.2L325.2,198.4z"/>
	<path class="st1" d="M351.1,179.3c0,1.1-0.8,1.9-2,1.9c-1.1,0-1.9-0.9-1.9-1.9c0-1.1,0.8-2,2-2
		C350.3,177.3,351.1,178.2,351.1,179.3z M347.5,201.6v-17.4h3.2v17.4H347.5z"/>
	<path class="st1" d="M356,188.9c0-1.8,0-3.3-0.1-4.7h2.8l0.2,2.9h0.1c0.9-1.7,2.9-3.3,5.8-3.3c2.4,0,6.2,1.4,6.2,7.4v10.4h-3.2v-10
		c0-2.8-1-5.1-4-5.1c-2.1,0-3.7,1.5-4.2,3.2c-0.1,0.4-0.2,0.9-0.2,1.5v10.5H356V188.9z"/>
	<path class="st1" d="M386.8,180h-7.4v-2.7h18v2.7H390v21.6h-3.2V180z"/>
	<path class="st1" d="M399.2,193.5c0.1,4.3,2.8,6,6,6c2.3,0,3.6-0.4,4.8-0.9l0.5,2.3c-1.1,0.5-3,1.1-5.8,1.1c-5.4,0-8.6-3.5-8.6-8.8
		c0-5.3,3.1-9.4,8.2-9.4c5.7,0,7.2,5,7.2,8.2c0,0.6-0.1,1.2-0.1,1.5H399.2z M408.5,191.2c0-2-0.8-5.1-4.4-5.1c-3.2,0-4.6,3-4.9,5.1
		H408.5z"/>
	<path class="st1" d="M427.9,201c-0.8,0.4-2.7,1-5,1c-5.3,0-8.7-3.6-8.7-8.9c0-5.4,3.7-9.3,9.4-9.3c1.9,0,3.5,0.5,4.4,0.9l-0.7,2.4
		c-0.8-0.4-1.9-0.8-3.7-0.8c-4,0-6.2,3-6.2,6.6c0,4,2.6,6.5,6,6.5c1.8,0,3-0.5,3.9-0.9L427.9,201z"/>
	<path class="st1" d="M431.6,176.1h3.2v10.9h0.1c0.5-0.9,1.3-1.7,2.3-2.2c0.9-0.5,2.1-0.9,3.2-0.9c2.3,0,6.1,1.4,6.1,7.5v10.4h-3.2
		v-10c0-2.8-1-5.2-4-5.2c-2.1,0-3.7,1.4-4.2,3.2c-0.2,0.4-0.2,0.9-0.2,1.5v10.5h-3.2V176.1z"/>
	<path class="st1" d="M458.5,187.1c0-1.3,0.9-2.3,2.2-2.3s2.1,0.9,2.1,2.3c0,1.3-0.8,2.2-2.2,2.2
		C459.3,189.3,458.5,188.3,458.5,187.1z M458.5,199.8c0-1.3,0.9-2.3,2.2-2.3s2.1,0.9,2.1,2.3c0,1.3-0.8,2.2-2.2,2.2
		C459.3,202,458.5,201.1,458.5,199.8z"/>
	<path class="st1" d="M478.3,194l-2.5,7.6h-3.2l8.2-24.3h3.8l8.3,24.3h-3.3l-2.6-7.6H478.3z M486.3,191.6l-2.4-7
		c-0.5-1.6-0.9-3-1.3-4.4h-0.1c-0.4,1.4-0.8,2.9-1.2,4.4l-2.4,7H486.3z"/>
	<path class="st1" d="M508.3,201c-0.8,0.4-2.7,1-5,1c-5.3,0-8.7-3.6-8.7-8.9c0-5.4,3.7-9.3,9.4-9.3c1.9,0,3.5,0.5,4.4,0.9l-0.7,2.4
		c-0.8-0.4-1.9-0.8-3.7-0.8c-4,0-6.2,3-6.2,6.6c0,4,2.6,6.5,6,6.5c1.8,0,3-0.5,3.9-0.9L508.3,201z"/>
	<path class="st1" d="M523.7,198.9L523.7,198.9c-1,1.7-3,3.1-5.8,3.1c-4.1,0-7.4-3.5-7.4-8.8c0-6.5,4.2-9.4,7.9-9.4
		c2.7,0,4.5,1.3,5.4,3h0.1l0.1-2.6h3c-0.1,1.5-0.1,3-0.1,4.8v19.8h-3.2V198.9z M523.7,191.3c0-0.4,0-0.9-0.1-1.3
		c-0.5-1.9-2.2-3.6-4.5-3.6c-3.3,0-5.3,2.8-5.3,6.7c0,3.5,1.7,6.5,5.1,6.5c2.1,0,3.8-1.3,4.5-3.5c0.1-0.4,0.3-1,0.3-1.5V191.3z"/>
	<path class="st1" d="M546.7,196.9c0,1.8,0,3.4,0.1,4.8H544l-0.2-2.8h-0.1c-0.8,1.4-2.7,3.2-5.8,3.2c-2.7,0-6-1.5-6-7.6v-10.2h3.2
		v9.6c0,3.3,1,5.5,3.9,5.5c2.1,0,3.6-1.5,4.2-2.9c0.2-0.5,0.3-1,0.3-1.6v-10.7h3.2V196.9z"/>
	<path class="st1" d="M555.4,179.3c0,1.1-0.8,1.9-2,1.9c-1.1,0-1.9-0.9-1.9-1.9c0-1.1,0.8-2,2-2
		C554.7,177.3,555.4,178.2,555.4,179.3z M551.9,201.6v-17.4h3.2v17.4H551.9z"/>
	<path class="st1" d="M560.3,189.6c0-2.1,0-3.8-0.1-5.4h2.8l0.1,3.4h0.1c0.8-2.3,2.7-3.8,4.8-3.8c0.4,0,0.6,0,0.9,0.1v3
		c-0.3-0.1-0.6-0.1-1.1-0.1c-2.2,0-3.8,1.7-4.2,4.1c-0.1,0.4-0.1,0.9-0.1,1.5v9.3h-3.1V189.6z"/>
	<path class="st1" d="M575.8,179.3c0,1.1-0.8,1.9-2,1.9c-1.1,0-1.9-0.9-1.9-1.9c0-1.1,0.8-2,2-2C575,177.3,575.8,178.2,575.8,179.3z
		 M572.3,201.6v-17.4h3.2v17.4H572.3z"/>
	<path class="st1" d="M580.7,188.9c0-1.8,0-3.3-0.1-4.7h2.8l0.2,2.9h0.1c0.9-1.7,2.9-3.3,5.8-3.3c2.4,0,6.2,1.4,6.2,7.4v10.4h-3.2
		v-10c0-2.8-1-5.1-4-5.1c-2.1,0-3.7,1.5-4.2,3.2c-0.1,0.4-0.2,0.9-0.2,1.5v10.5h-3.2V188.9z"/>
	<path class="st1" d="M615.7,184.2c-0.1,1.3-0.1,2.7-0.1,4.8v10.1c0,4-0.8,6.4-2.5,8c-1.7,1.6-4.1,2.1-6.3,2.1
		c-2.1,0-4.4-0.5-5.8-1.4l0.8-2.4c1.2,0.7,3,1.4,5.1,1.4c3.2,0,5.6-1.7,5.6-6.1v-1.9h-0.1c-1,1.6-2.8,2.9-5.5,2.9
		c-4.3,0-7.4-3.7-7.4-8.5c0-5.9,3.9-9.3,7.8-9.3c3,0,4.7,1.6,5.4,3h0.1l0.1-2.6H615.7z M612.4,191.1c0-0.5,0-1-0.2-1.4
		c-0.6-1.8-2.1-3.3-4.4-3.3c-3,0-5.2,2.6-5.2,6.6c0,3.4,1.7,6.3,5.1,6.3c1.9,0,3.7-1.2,4.4-3.2c0.2-0.5,0.3-1.2,0.3-1.7V191.1z"/>
	<path class="st1" d="M628.5,201.6v-24.3h3.4l7.8,12.3c1.8,2.8,3.2,5.4,4.4,7.9l0.1,0c-0.3-3.2-0.4-6.2-0.4-10v-10.2h3v24.3h-3.2
		l-7.7-12.3c-1.7-2.7-3.3-5.5-4.5-8.1l-0.1,0c0.2,3.1,0.3,6,0.3,10v10.4H628.5z"/>
	<path class="st1" d="M653.9,193.5c0.1,4.3,2.8,6,6,6c2.3,0,3.6-0.4,4.8-0.9l0.5,2.3c-1.1,0.5-3,1.1-5.8,1.1c-5.4,0-8.6-3.5-8.6-8.8
		c0-5.3,3.1-9.4,8.2-9.4c5.7,0,7.2,5,7.2,8.2c0,0.6-0.1,1.2-0.1,1.5H653.9z M663.2,191.2c0-2-0.8-5.1-4.4-5.1c-3.2,0-4.6,3-4.9,5.1
		H663.2z"/>
	<path class="st1" d="M671.4,184.2l2.3,8.9c0.5,1.9,1,3.7,1.3,5.5h0.1c0.4-1.8,1-3.6,1.5-5.5l2.8-8.9h2.7l2.7,8.7
		c0.6,2.1,1.2,3.9,1.5,5.7h0.1c0.3-1.8,0.8-3.6,1.3-5.7l2.5-8.7h3.1l-5.6,17.4H685l-2.7-8.3c-0.6-1.9-1.1-3.7-1.5-5.7h-0.1
		c-0.4,2.1-1,3.9-1.6,5.8l-2.8,8.3h-2.9l-5.3-17.4H671.4z"/>
	<path class="st1" d="M703.9,197.8c1.4,0.9,3.5,1.6,5.6,1.6c3.2,0,5.1-1.7,5.1-4.1c0-2.3-1.3-3.6-4.6-4.8c-4-1.4-6.4-3.5-6.4-6.9
		c0-3.8,3.1-6.6,7.8-6.6c2.5,0,4.3,0.6,5.4,1.2l-0.9,2.6c-0.8-0.4-2.4-1.2-4.6-1.2c-3.3,0-4.6,2-4.6,3.6c0,2.3,1.5,3.4,4.8,4.7
		c4.1,1.6,6.2,3.6,6.2,7.1c0,3.7-2.8,7-8.5,7c-2.3,0-4.9-0.7-6.2-1.5L703.9,197.8z"/>
	<path class="st1" d="M725.1,192.2L725.1,192.2c0.5-0.6,1.1-1.4,1.6-2l5.1-6h3.8l-6.7,7.2l7.7,10.3h-3.9l-6-8.4l-1.6,1.8v6.6H722
		v-25.6h3.1V192.2z"/>
	<path class="st1" d="M743,179.3c0,1.1-0.8,1.9-2,1.9c-1.1,0-1.9-0.9-1.9-1.9c0-1.1,0.8-2,2-2C742.3,177.3,743,178.2,743,179.3z
		 M739.5,201.6v-17.4h3.2v17.4H739.5z"/>
	<path class="st1" d="M747.9,176.1h3.2v25.6h-3.2V176.1z"/>
	<path class="st1" d="M756.4,176.1h3.2v25.6h-3.2V176.1z"/>
	<path class="st1" d="M764.5,198.4c0.9,0.6,2.6,1.3,4.2,1.3c2.3,0,3.4-1.2,3.4-2.6c0-1.5-0.9-2.3-3.2-3.2c-3.1-1.1-4.6-2.8-4.6-4.9
		c0-2.8,2.3-5.1,6-5.1c1.8,0,3.3,0.5,4.3,1.1l-0.8,2.3c-0.7-0.4-1.9-1-3.6-1c-1.9,0-2.9,1.1-2.9,2.4c0,1.4,1,2.1,3.3,3
		c3,1.2,4.6,2.7,4.6,5.3c0,3.1-2.4,5.2-6.5,5.2c-1.9,0-3.7-0.5-4.9-1.2L764.5,198.4z"/>
</g>
</svg>
