<?xml version="1.0" encoding="utf-8"?>
<!-- Generator: Adobe Illustrator 19.2.1, SVG Export Plug-In . SVG Version: 6.00 Build 0)  -->
<svg version="1.1" id="Layer_1" xmlns="http://www.w3.org/2000/svg" xmlns:xlink="http://www.w3.org/1999/xlink" x="0px" y="0px"
	 viewBox="0 0 600 500" style="enable-background:new 0 0 600 500;" xml:space="preserve">
<style type="text/css">
	.st0{fill:#8DC63F;}
</style>
<g>
	<g>
		<path class="st0" d="M293.8,221.5h-16.7v67.6h-24.6v-67.6h-17.7l1.4-21.7h59L293.8,221.5z"/>
		<path class="st0" d="M301.3,215.5c-2-1.7-3-4.5-3-8.3c0-3.8,1-6.7,3-8.5c2-1.8,5.3-2.7,9.9-2.7c4.6,0,7.9,0.9,9.9,2.7
			c2,1.8,3,4.6,3,8.4c0,3.8-1,6.6-3,8.3c-2,1.8-5.3,2.7-9.9,2.7C306.6,218.1,303.3,217.2,301.3,215.5z M323.2,289.1h-23.7v-68.2
			h23.7V289.1z"/>
		<path class="st0" d="M386.1,221.5h-16.7v67.6h-24.6v-67.6h-17.7l1.4-21.7h59L386.1,221.5z"/>
		<path class="st0" d="M457.3,289.1h-24l-2.7-14.1h-17l-2.7,14.1H388l16.4-89.3h36.5L457.3,289.1z M427.8,258.2l-5-31.9h-1l-5,31.9
			H427.8z"/>
		<path class="st0" d="M529.9,289.1h-23.6l-18.5-41.6h-1.1v41.6h-21.9v-89.3h24.3l17.7,42.8h1.1v-42.8h22V289.1z"/>
		<path class="st0" d="M546,206.1c5-5.2,11.8-7.8,20.5-7.8c8.7,0,17.6,0.9,26.7,2.6l-2.9,23c-9.5-2.2-16-3.3-19.6-3.3
			c-4.5,0-6.8,1.8-6.8,5.5c0,1.4,1.1,2.8,3.2,4.2c2.2,1.3,4.8,2.8,7.8,4.2c3.1,1.5,6.1,3.3,9.2,5.3c3.1,2.1,5.7,5,7.8,8.8
			c2.2,3.8,3.2,8.2,3.2,13.2c0,9.1-2.4,16.2-7.3,21.1c-4.9,5-11.8,7.5-20.8,7.5c-9,0-17.7-1.4-26.2-4.2l1.6-21.4
			c10.3,3,17.4,4.5,21.4,4.5c4,0,6-1.8,6-5.3c0-1.8-1.1-3.5-3.2-5c-2.2-1.5-4.8-3.1-7.8-4.6c-3.1-1.5-6.2-3.3-9.3-5.3
			c-3.1-2-5.8-4.9-7.9-8.8c-2.2-3.8-3.2-8.4-3.2-13.7C538.5,218.2,541,211.3,546,206.1z"/>
	</g>
	<path class="st0" d="M465.9,293.8c-22.3,102.3-113.4,178.9-222.4,178.9c-125.7,0-227.7-101.9-227.7-227.7S117.8,17.4,243.5,17.4
		c108.9,0,199.9,76.4,222.3,178.5h12.3C455.4,87.1,359,5.4,243.5,5.4C111.2,5.4,3.9,112.7,3.9,245.1s107.3,239.6,239.6,239.6
		c115.7,0,212.2-81.9,234.7-190.9H465.9z"/>
</g>
</svg>
